<?xml version="1.0" encoding="UTF-8"?>
<!DOCTYPE svg PUBLIC "-//W3C//DTD SVG 1.1//EN" "http://www.w3.org/Graphics/SVG/1.1/DTD/svg11.dtd">
<svg xmlns="http://www.w3.org/2000/svg" version="1.1" width="96px" height="96px" style="shape-rendering:geometricPrecision; text-rendering:geometricPrecision; image-rendering:optimizeQuality; fill-rule:evenodd; clip-rule:evenodd" xmlns:xlink="http://www.w3.org/1999/xlink">
<g><path style="opacity:1" fill="#f9faf9" d="M 24.5,11.5 C 33.24,10.4141 40.9067,12.7475 47.5,18.5C 57.6025,10.2329 68.2692,9.3996 79.5,16C 87.5234,23.2977 89.6901,32.131 86,42.5C 84.254,46.3267 82.254,49.9934 80,53.5C 70.2795,65.0551 59.4462,75.3884 47.5,84.5C 33.8333,74.1667 21.8333,62.1667 11.5,48.5C 18.1032,48.2321 24.2698,46.5654 30,43.5C 33.3089,46.6437 36.4756,49.977 39.5,53.5C 42.6542,50.8412 46.1542,48.8412 50,47.5C 52.3207,47.9095 54.4874,48.7428 56.5,50C 65.8634,50.622 68.5301,46.622 64.5,38C 62.6494,37.1628 60.8161,36.3295 59,35.5C 52.987,38.3872 46.8203,41.0539 40.5,43.5C 37.4849,40.3184 34.6515,36.9851 32,33.5C 28.9279,34.9534 26.0946,36.7868 23.5,39C 18.5,39.6667 13.5,39.6667 8.5,39C 6.03942,25.2948 11.3728,16.1281 24.5,11.5 Z"/></g>
</svg>
